<?xml version="1.0" encoding="iso-8859-1"?>
<!-- Generator: Adobe Illustrator 19.1.0, SVG Export Plug-In . SVG Version: 6.00 Build 0)  -->
<svg version="1.1" id="Capa_1" xmlns="http://www.w3.org/2000/svg" xmlns:xlink="http://www.w3.org/1999/xlink" x="0px" y="0px"
	 viewBox="0 0 532.065 532.065" style="enable-background:new 0 0 532.065 532.065;" xml:space="preserve">
<g>
	<g>
		<path d="M216.307,485.757c119.342,0,216.307-96.965,216.307-216.307c0-27.349-4.973-54.698-14.918-79.561
			c-2.486-7.459-9.945-9.945-14.918-7.459c-7.459,2.486-9.945,9.945-7.459,14.918c9.945,22.377,12.431,44.753,12.431,69.616
			c0,104.424-84.534,191.444-191.444,191.444c-104.424,0-191.444-84.534-191.444-191.444S109.396,75.521,216.307,75.521
			c52.212,0,101.938,22.377,139.232,59.671c4.973,4.973,12.431,4.973,17.404,0c4.973-4.973,4.973-12.431,0-17.404
			c-42.267-44.753-96.965-67.13-156.636-67.13C96.965,55.631,0,152.596,0,269.451S96.965,485.757,216.307,485.757z"/>
		<path d="M323.217,177.458c4.973-4.973,4.973-12.431,0-17.404c-29.835-27.349-67.13-42.267-106.91-42.267
			c-84.534,0-154.15,69.616-154.15,154.15s69.616,154.15,154.15,154.15s154.15-69.616,154.15-154.15
			c0-14.918-2.486-32.322-7.459-47.239c-2.486-7.459-9.945-9.945-14.918-7.459c-7.459,2.486-9.945,9.945-7.459,14.918
			c4.973,12.431,4.973,24.863,4.973,39.781c0,69.616-57.185,129.287-129.287,129.287c-69.616,0-129.287-57.185-129.287-129.287
			S146.691,142.65,216.307,142.65c32.322,0,64.643,12.431,89.506,34.808C310.785,182.431,318.244,182.431,323.217,177.458z"/>
		<path d="M216.307,202.321c12.431,0,24.863,2.486,37.294,9.945c2.486,0,2.486,2.486,4.973,2.486
			c4.973,4.973,12.431,2.486,17.404-2.486c4.973-4.973,2.486-12.431-2.486-17.404c-2.486-2.486-4.973-2.486-7.459-4.973
			c-14.918-9.945-32.322-14.918-49.726-14.918c-52.212,0-94.479,42.267-94.479,94.479s42.267,94.479,94.479,94.479
			s94.479-42.267,94.479-94.479c0-4.973,0-7.459,0-12.431c0-7.459-7.459-12.431-14.918-9.945c-7.459,0-12.431,7.459-9.945,14.918
			c0,2.486,0,4.973,0,9.945c0,37.294-29.835,69.616-69.616,69.616c-37.294,0-69.616-29.835-69.616-69.616
			S179.012,202.321,216.307,202.321z"/>
		<path d="M233.711,244.588c-4.973-2.486-9.945-4.973-17.404-4.973c-17.404,0-32.322,14.918-32.322,32.322
			c0,17.404,14.918,32.322,32.322,32.322s32.322-14.918,32.322-32.322c0-2.486,0-2.486,0-4.973l174.04-104.424l49.726,22.377
			c2.486,0,2.486,0,4.973,0s4.973,0,7.459-2.486l42.267-27.349c2.486-2.486,4.973-7.459,4.973-9.945
			c0-4.973-2.486-7.459-4.973-9.945l-44.753-27.349l-4.973-49.726c0-4.973-2.486-7.459-7.459-9.945
			c-4.973-2.486-7.459-2.486-12.431,0l-42.267,27.349c-2.486,2.486-4.973,4.973-4.973,9.945v57.184L233.711,244.588z
			 M430.127,90.439l19.89-12.431l4.973,37.294c0,4.973,2.486,7.459,4.973,9.945l32.322,17.404l-19.89,14.918l-42.267-17.404V90.439z
			"/>
	</g>
</g>
<g>
</g>
<g>
</g>
<g>
</g>
<g>
</g>
<g>
</g>
<g>
</g>
<g>
</g>
<g>
</g>
<g>
</g>
<g>
</g>
<g>
</g>
<g>
</g>
<g>
</g>
<g>
</g>
<g>
</g>
</svg>
